<mxfile host="app.diagrams.net" modified="2023-07-06T00:50:42.413Z" agent="Mozilla/5.0 (Windows NT 10.0; Win64; x64) AppleWebKit/537.36 (KHTML, like Gecko) Chrome/113.0.0.0 Safari/537.36 OPR/99.0.0.0" version="21.6.1" etag="P_qnbrifK6K6wLMDMdEo" type="github">
  <diagram name="Page-1" id="ptA9q-_L5EnGJPlWLjHv">
    <mxGraphModel>
      <root>
        <mxCell id="0" />
        <mxCell id="1" parent="0" />
      </root>
    </mxGraphModel>
  </diagram>
</mxfile>
